<?xml version="1.0" encoding="utf-8"?>
<!-- Generator: Adobe Illustrator 24.1.1, SVG Export Plug-In . SVG Version: 6.00 Build 0)  -->
<svg version="1.1" id="Layer_1" xmlns="http://www.w3.org/2000/svg" xmlns:xlink="http://www.w3.org/1999/xlink" x="0px" y="0px"
	 viewBox="0 0 512 512" style="enable-background:new 0 0 512 512;" xml:space="preserve">
<g id="XMLID_1_">
	<path id="XMLID_7_" d="M462.8,0H48.3C22.3,0,0,21.4,0,48.3v415.4c0,26,21.4,48.3,48.3,48.3h415.4c26,0,48.3-21.4,48.3-48.3V48.3
		C511.1,21.4,489.7,0,462.8,0z M191.4,415.4h-64.1V191.4h64.1V415.4z M159.8,159.8c-17.7,0-31.6-13.9-31.6-31.6s13.9-31.6,31.6-31.6
		s31.6,13.9,31.6,31.6S177.5,159.8,159.8,159.8z M415.4,415.4h-64.1V287.1c0-17.7-13.9-31.6-31.6-31.6s-31.6,13.9-31.6,31.6v128.2
		h-64.1V191.4h64.1v40c13-17.7,33.5-40,55.8-40c40,0,71.5,35.3,71.5,79.9C415.4,271.3,415.4,415.4,415.4,415.4z"/>
</g>
</svg>
